<svg version="1.1" id="Layer_1" xmlns="http://www.w3.org/2000/svg" xmlns:xlink="http://www.w3.org/1999/xlink" x="0px" y="0px"
	 width="100%" viewBox="0 0 84 80" enable-background="new 0 0 84 80" xml:space="preserve">
<path fill="none" opacity="1.000000" stroke="#000000" stroke-linecap="round" stroke-linejoin="round" stroke-width="3.000000"
	d="
M60.500000,61.000000 
	C62.775711,61.293884 64.101913,60.881283 64.060692,57.999130 
	C63.908169,47.334644 63.908169,36.665356 64.060692,26.000868 
	C64.101913,23.118719 62.775711,22.706114 60.500000,23.000000 
"/>
<path fill="none" opacity="1.000000" stroke="#000000" stroke-linecap="round" stroke-linejoin="round" stroke-width="3.000000"
	d="
M47.000000,44.500000 
	C47.957222,39.603588 42.449108,40.675182 40.948151,37.581680 
	C42.157391,35.055038 45.064758,32.148170 41.478596,29.024574 
	C39.769760,27.536156 37.437653,27.345221 36.089470,29.069937 
	C33.872166,31.906517 34.748142,34.892376 37.160145,37.308918 
	C35.953880,40.650944 29.976336,39.574955 31.000000,44.500000 
"/>
<path fill="none" opacity="1.000000" stroke="#000000" stroke-linecap="round" stroke-linejoin="round" stroke-width="3.000000"
	d="
M45.500000,53.500000 
	C46.443165,52.242336 47.386326,50.984669 48.499729,49.500000 
	C41.981483,49.500000 35.976852,49.500000 29.299593,49.500000 
	C30.711218,51.264309 31.605608,52.382153 32.500000,53.500000 
"/>
<path fill="none" opacity="1.000000" stroke="#000000" stroke-linecap="round" stroke-linejoin="round" stroke-width="3.000000"
	d="
M23.500000,19.000000 
	C22.597027,19.097027 22.055487,19.594994 22.011145,20.500546 
	C21.962294,21.498154 22.000000,22.500000 22.000000,23.500000 
	C22.000000,37.168697 22.000000,50.837399 22.000000,64.750000 
	C33.500000,64.750000 44.500000,64.750000 55.750000,64.750000 
	C55.750000,49.500000 55.750000,34.500000 55.750000,19.000000 
	C45.005291,19.000000 34.502647,19.000000 24.000000,19.000000 
"/>
</svg>