<?xml version="1.0" standalone="no"?>
<!DOCTYPE svg PUBLIC "-//W3C//DTD SVG 20010904//EN"
 "http://www.w3.org/TR/2001/REC-SVG-20010904/DTD/svg10.dtd">
<svg version="1.0" xmlns="http://www.w3.org/2000/svg"
 width="86.000000pt" height="80.000000pt" viewBox="0 0 86.000000 80.000000"
 preserveAspectRatio="xMidYMid meet">

<g transform="translate(0.000000,80.000000) scale(0.100000,-0.100000)"
fill="#000000" stroke="none">
<path d="M197 564 c-4 -4 -7 -39 -7 -77 0 -60 2 -70 20 -74 11 -3 20 -14 20
-25 0 -11 8 -22 20 -25 17 -5 20 -15 22 -97 l3 -91 135 0 135 0 3 91 c2 82 5
92 22 97 12 3 20 14 20 25 0 11 9 22 20 25 19 5 21 12 18 79 l-3 73 -45 0
c-39 0 -45 -3 -48 -22 -2 -13 -10 -23 -17 -23 -7 0 -15 10 -17 23 -2 17 -10
22 -33 22 -23 0 -31 -5 -33 -22 -2 -13 -10 -23 -17 -23 -7 0 -15 10 -17 23 -2
17 -10 22 -33 22 -23 0 -31 -5 -33 -22 -2 -13 -10 -23 -17 -23 -7 0 -15 10
-17 23 -3 19 -10 22 -48 25 -25 2 -49 0 -53 -4z m83 -33 c0 -10 7 -22 16 -25
26 -10 54 3 54 25 0 27 28 24 32 -3 2 -18 10 -23 33 -23 23 0 31 5 33 23 2 12
10 22 17 22 7 0 15 -10 17 -22 2 -18 10 -23 33 -23 23 0 31 5 33 23 3 17 10
22 33 22 29 0 29 0 29 -60 0 -53 -2 -60 -20 -60 -15 0 -20 -7 -20 -25 0 -18
-5 -25 -20 -25 -19 0 -20 -7 -20 -95 l0 -95 -120 0 -120 0 0 95 c0 88 -1 95
-20 95 -15 0 -20 7 -20 25 0 18 -5 25 -20 25 -18 0 -20 7 -20 60 l0 60 35 0
c28 0 35 -4 35 -19z"/>
</g>
</svg>
